<svg id="圖層_1" data-name="圖層 1" xmlns="http://www.w3.org/2000/svg" viewBox="0 0 225 94"><defs><style>.cls-1{fill:#55bde5;}.cls-2{fill:#9fc700;}.cls-3{fill:#3295d1;}.cls-4{fill:#ef8b00;}.cls-5{fill:#fff;}.cls-6{fill:#32327d;}.cls-7{fill:#db0032;}.cls-8{fill:#db4646;}</style></defs><path class="cls-1" d="M98.83,38.59v-.05c0-.16,0-.32,0-.48V38c0-.16,0-.31,0-.46v-.08c0-.15,0-.3-.08-.45v-.07c0-.15-.06-.3-.1-.45v-.06L98.4,36v0c0-.13-.1-.33-.15-.46h0c0-.16-.11-.31-.17-.46v0l-.18-.44,0,0-.2-.42,0,0-.21-.4,0-.05c-.07-.14-.15-.27-.23-.4l0,0-.26-.4v0a11.54,11.54,0,0,0-.92-1.17h0l-.33-.35,0,0-.35-.34,0,0-.35-.32h0a11,11,0,0,0-2.09-1.41h0l-.37-.19-.09,0a11.07,11.07,0,0,0-3.48-1h0l-.31,0h0l-.29,0H65.73l-.29,0h0l-.31,0h0a11.07,11.07,0,0,0-3.48,1l-.1,0-.36.19h0a11,11,0,0,0-2.09,1.41h0l-.35.32,0,0-.34.34,0,0a3.61,3.61,0,0,0-.33.35h0a11.54,11.54,0,0,0-.92,1.17v0l-.26.4,0,0-.24.4,0,.05-.21.4,0,0-.19.42,0,0c-.07.15-.13.29-.19.44v0c-.06.15-.11.3-.17.46h0c0,.12-.11.34-.14.46v0a3.74,3.74,0,0,0-.12.45l0,.06c0,.15-.07.3-.1.45V37c0,.15-.05.3-.08.45v.08c0,.15,0,.3,0,.46v.06l0,.48v.05c0,.16,0,.33,0,.51h0A11.35,11.35,0,0,0,66.4,50.41H67a1.64,1.64,0,0,1,1.64,1.64V62.44c0,.05,0,.1,0,.16v.17a7.46,7.46,0,0,0,1.79,4.74,8.24,8.24,0,0,0,13,0,7.44,7.44,0,0,0,1.77-4.71V62.6a.92.92,0,0,0,0-.16V52.05a1.65,1.65,0,0,1,1.64-1.64h.64A11.35,11.35,0,0,0,98.84,39.1h0C98.84,38.92,98.83,38.75,98.83,38.59Z"/><path class="cls-2" d="M100.06,46.29c-.33-.13-.54-.21-.59-.42a.41.41,0,0,1,.4-.49h.93l.66,0c4.68,0,8.36-3.27,8.36-8.69,0-5.9-3.71-8.83-8.24-8.83,0,0-6.28-.08-9.15,0-3.55,0-7.51-.08-10.83,1.36a9.38,9.38,0,0,0-1.22.63,11.63,11.63,0,0,0-4.13,4.71,11.13,11.13,0,0,0,0,10.91c1.87,2.92,6.17,5.44,7.9,6.07h0c.52.22,1,.54,1,.89v0c0,.35-.13.76-.67.76l-5.53,0c-5.66,0-10.29,3-10.29,8.64v.11c0,.15,0,.31,0,.46A8.25,8.25,0,0,0,77,70.64q.3,0,.6,0h0c.38,0,.76,0,1.15,0H97.28c8.42,0,12.45-5.91,12.4-12.72-.05-6.52-3.55-10.15-9.62-11.65Z"/><path class="cls-3" d="M83.46,67.48a7.44,7.44,0,0,0,1.77-4.71V62.6a.92.92,0,0,0,0-.16V52.05a1.65,1.65,0,0,1,1.64-1.64h.64A11.35,11.35,0,0,0,98.84,39.1c0-.18,0-.35,0-.51v-.05c0-.16,0-.32,0-.48V38c0-.16,0-.31,0-.46v-.08c0-.15,0-.3-.08-.45v-.07c0-.15-.06-.3-.1-.45v-.06L98.4,36v0c0-.13-.1-.33-.15-.46h0c0-.16-.11-.31-.17-.46v0l-.18-.44,0,0-.2-.42,0,0-.21-.4,0-.05c-.07-.14-.15-.27-.23-.4l0,0-.26-.4v0a11.54,11.54,0,0,0-.92-1.17h0l-.33-.35,0,0-.35-.34,0,0-.35-.32h0a11,11,0,0,0-2.09-1.41h0l-.37-.19-.09,0a11.36,11.36,0,0,0-3.47-1,19.6,19.6,0,0,0-7.22,1.31,10.81,10.81,0,0,0-1.22.63,11.7,11.7,0,0,0-4.13,4.71,11.15,11.15,0,0,0,0,10.92c1.87,2.91,6.17,5.44,7.9,6.06h0c.52.22,1,.55,1,.89v0c0,.35-.13.76-.67.76L79,53.2c-5.66,0-10.29,3-10.29,8.65V62c0,.15,0,.31,0,.46a8.25,8.25,0,0,0,7.39,8.21h0l.4,0H77l.59,0h0A8.22,8.22,0,0,0,83.46,67.48Z"/><path class="cls-4" d="M53.22,59.91C53,59,43.44,35.58,43.05,34.63l0,0a2.54,2.54,0,0,0-.16-.28C41.24,30.53,37,27.83,32,27.83h0c-5,0-9.28,2.7-10.95,6.49a1.51,1.51,0,0,0-.15.28L19.11,39c-2.65,6.47-7.39,18.15-8.27,20.55-.08.22-.13.36-.14.41a9.43,9.43,0,0,0-.22,2A9.05,9.05,0,0,0,15.43,70h0a9.06,9.06,0,0,0,10.3-1.53,6.66,6.66,0,0,0,1.93-2.36l1.7-3h0a2.69,2.69,0,0,1,5.12,0h0l1.7,3a6.66,6.66,0,0,0,1.93,2.36,9,9,0,0,0,15.28-6.55A9.43,9.43,0,0,0,53.22,59.91Z"/><circle class="cls-5" cx="31.97" cy="44.66" r="7.46" transform="translate(-14.18 14.89) rotate(-21.58)"/><circle class="cls-6" cx="31.97" cy="44.86" r="4.61" transform="translate(-17.35 69.4) rotate(-80.98)"/><path class="cls-5" d="M32.92,44.2a1,1,0,1,1-1-1A1,1,0,0,1,32.92,44.2Z"/><path class="cls-7" d="M73.1,58.35a1.83,1.83,0,0,1-1.27-.87c-1.13-1.89-2.34-3.7-3-4.66a.84.84,0,0,1,.2-1.14,11,11,0,0,0,4.63-9V38.85a11.06,11.06,0,0,0-11-11H49.91A8.05,8.05,0,0,0,42,35.59V64a6.19,6.19,0,0,0,1.78,4.35c.1.1.2.2.31.29A7.19,7.19,0,0,0,49.41,71c7.77,0,7.22-6.37,7.22-6.37h0c0-.88,0-1.71.91-1.71S60.6,67,60.6,67a9,9,0,0,0,7.68,4,8.22,8.22,0,0,0,4.25-1.25,12.32,12.32,0,0,0,3.81-3.83,6.22,6.22,0,0,0,.85-2.35,4.72,4.72,0,0,0,0-1.3C76.79,59.51,75,58.68,73.1,58.35Z"/><path class="cls-8" d="M56.64,64.59a4.32,4.32,0,0,1,.12-1.36c.43-1,1-4.65,4.89-6.82a76.42,76.42,0,0,0,8.06-5.25,11,11,0,0,0,4-8.43V39A11,11,0,0,0,62.44,27.83H49.91A8.05,8.05,0,0,0,42,35.59V64a6.19,6.19,0,0,0,1.78,4.35l.28.27.05,0A7.18,7.18,0,0,0,49.41,71h0c7.77,0,7.22-6.37,7.22-6.37Z"/><path class="cls-7" d="M58.35,39.88A4.07,4.07,0,0,0,56.81,38,4.22,4.22,0,0,0,55,37.35a17.23,17.23,0,0,0-2.86.06,8.51,8.51,0,0,0-1.79.51h0c-.36.09-.5.72-.5,1.11V50s0,.09,0,.13,0,.17,0,.25a2.75,2.75,0,0,0,2.75,2.74h0a2.74,2.74,0,0,0,0-5.48h0a2.74,2.74,0,0,0-1.08.22V39.31a6.26,6.26,0,0,1,.92-.22,7.39,7.39,0,0,1,3.49.34,2.45,2.45,0,0,1,.89,1.13,6.45,6.45,0,0,1,.42,2.53.86.86,0,1,0,1.71,0A8.17,8.17,0,0,0,58.35,39.88Z"/><path class="cls-6" d="M118.49,48.93h8.19v.15a11.4,11.4,0,0,1-3.8,8.59,9.31,9.31,0,0,1,3.8,7.42v.11a2,2,0,0,1-2.13,2.14h-3.92v3.21h-2.14Zm2.14,7.77a8.61,8.61,0,0,0,3.73-5.63h-3.73Zm3.92,8.39a7.24,7.24,0,0,0-3.92-6.28V65.2h3.92Zm9.5,3.32h2.49V51.07h-9.26V48.93h13.54v2.14h-2.14V68.41a2,2,0,0,1-2.14,2.14h-2.49ZM134.76,54V64.73h-7.13V54Zm-5,8.55h2.85V56.18h-2.85Z"/><path class="cls-6" d="M150.59,48v3.35h2v2.14h-2v7.82a9.69,9.69,0,0,0,1.14-.81L153,62.14a18.81,18.81,0,0,1-2.45,1.66v6.87h-2.13V64.9a26.05,26.05,0,0,1-3.85,1.33l-.55-2.07a24.13,24.13,0,0,0,4.4-1.64V53.47h-1.83a14.8,14.8,0,0,1-1,3.18l-1.91-.95A18.74,18.74,0,0,0,145,48h2.14a32.08,32.08,0,0,1-.19,3.35h1.5V48Zm8.2,6.77V51.9h-4.52V49.77h4.52V48h2.14v1.79h4.51V51.9h-4.51v2.85H166v2.14h-2v2.49h2.38v2.14H164v6.89a2,2,0,0,1-2.13,2.14h-2.14V68.41h2.14V61.52h-8.44V59.38h8.44V56.89h-8.2V54.75Zm-2.95,8.06,3.09,3.8L157.22,68l-3.09-3.8Z"/><path class="cls-6" d="M174.52,48l5.13,3.78-1.35,1.85-3.78-2.85-3.78,2.85-1.33-1.85Zm3.61,5.73v2.16h-2.52v2.35h2.69v2.18h-2.69v7.87h3.73V70.5h-9.55V68.32h3.64V60.45h-2.59V58.27h2.59V55.92H171V53.76Zm-5.79,8.59.66,3.71-2.16.43-.69-3.78Zm4.44,0,2.18.36-.66,3.78-2.19-.43Zm14.53-2.13h-9v8.26a8.44,8.44,0,0,0,3-1.66l1.26,1.83c-1.64,1.16-2.83,2-4.51,2.18h-1.95V48.7h11.16Zm-9-9.34V53.4h6.79V50.88ZM189.13,58V55.58h-6.79V58Zm2.25,4.42-3.68,1.92A9.45,9.45,0,0,0,192.64,69l-1,2a11.67,11.67,0,0,1-6.39-6.79l-.24-.93,5.37-2.73Z"/><path class="cls-6" d="M201,47.75l1.78,1.35c-.16.17-3.2,4.18-6.82,5.87L195,53C198.11,51.52,200.89,47.84,201,47.75Zm-2.37,14a14.13,14.13,0,0,1-2.67,1.69l-.9-1.92c3.09-1.52,5.87-5.21,5.94-5.3l1.78,1.35A30.81,30.81,0,0,1,200.53,60h.19V70.9h-2.13Zm19.23-4.58v2.14h-3.56V70.79h-2.14V59.27h-8.07V57.13Zm-13.42-8.2h12.47v2.14H204.4Z"/><path class="cls-6" d="M182.64,43.15l-.42-1h-1.49l-.42,1h-.91l1.73-4h.68l1.74,4Zm-1.17-2.73-.42,1h.84Z"/><path class="cls-6" d="M186.66,43.14a1.54,1.54,0,0,1-.23-.7c-.05-.42-.09-.68-.11-.75s-.11-.11-.25-.11h-.87v1.56h-.83v-4h1.53a1.7,1.7,0,0,1,1,.3,1.14,1.14,0,0,1,.41.93,1,1,0,0,1-.41.79,1,1,0,0,1,.31.65c0,.13,0,.37.09.71a1.27,1.27,0,0,0,.47.61Zm-.81-3.23h-.65v.91h.55a1,1,0,0,0,.52-.12.35.35,0,0,0,.2-.32C186.47,40.07,186.26,39.91,185.85,39.91Z"/><path class="cls-6" d="M190.48,39.91v3.23h-.84V39.91h-1.23v-.76h3.3v.76Z"/><path class="cls-6" d="M194.22,43.24a1.3,1.3,0,0,1-1-.41,1.54,1.54,0,0,1-.38-1.11h.87a1,1,0,0,0,.16.6.72.72,0,0,0,.52.15.83.83,0,0,0,.46-.12A.42.42,0,0,0,195,42c0-.11-.1-.22-.31-.32l-.71-.26a2.32,2.32,0,0,1-.73-.39.91.91,0,0,1-.34-.74,1.08,1.08,0,0,1,.45-.9,1.78,1.78,0,0,1,2,0,1.34,1.34,0,0,1,.45,1.07H195c0-.4-.21-.61-.57-.61A.78.78,0,0,0,194,40a.33.33,0,0,0-.16.29c0,.13.08.23.24.32l.42.16a6.15,6.15,0,0,1,.94.41,1,1,0,0,1,.48.85C195.88,42.83,195.33,43.24,194.22,43.24Z"/><path class="cls-6" d="M203,42.83a1.58,1.58,0,0,1-1,.3h-1.59v-4h1.5a1.58,1.58,0,0,1,1,.29,1,1,0,0,1,.41.85A1,1,0,0,1,203,41a1.06,1.06,0,0,1,.48.91A1.09,1.09,0,0,1,203,42.83Zm-1.18-2.93h-.56v.79h.58c.37,0,.56-.13.56-.39S202.2,39.9,201.82,39.9Zm.45,1.62a2.13,2.13,0,0,0-.62-.07h-.39v.91h.59c.47,0,.71-.16.71-.47A.36.36,0,0,0,202.27,41.52Z"/><path class="cls-6" d="M207.65,43.13l-.42-1h-1.5l-.42,1h-.9l1.73-4h.68l1.74,4Zm-1.17-2.73-.42,1h.84Z"/><path class="cls-6" d="M211.87,43.12l-1.62-2.49v2.49h-.84v-4h.81l1.61,2.49V39.13h.84v4Z"/><path class="cls-6" d="M216.14,43.12l-1.35-1.56v1.56H214v-4h.83v1.14L216,39.13h1.17l-1.87,1.76,1.93,2.23Z"/></svg>