<svg id="圖層_1" data-name="圖層 1" xmlns="http://www.w3.org/2000/svg" viewBox="0 0 110 141"><defs><style>.cls-1{fill:#fff;}</style></defs><path class="cls-1" d="M75.69,58.14a9.74,9.74,0,0,0-.52-3.45,5.81,5.81,0,0,0-4.26-3.8,13.43,13.43,0,0,0-3.17,0c-.16-.43-.29-.89-.49-1.32a5.86,5.86,0,0,0-6.87-3.41,9.64,9.64,0,0,1-1,.25.82.82,0,0,1-.6-.13,6.06,6.06,0,0,0-5.38-2.36,14.31,14.31,0,0,0-1.47.23v-.76c0-2.44-.13-4.88,0-7.32a5.29,5.29,0,0,0-3.46-4.92,6.31,6.31,0,0,0-5.94.51A4.94,4.94,0,0,0,40,36c.08,7.07.09,14.14.12,21.21V58A8.94,8.94,0,0,0,36,59.26a5.73,5.73,0,0,0-2.64,3.45,11.89,11.89,0,0,0-.52,3.75c.05,1,0,1.91,0,2.86A6.37,6.37,0,0,0,33,70.71c.4,1.48.84,3,1.28,4.43a13.24,13.24,0,0,0,2.13,4,33.45,33.45,0,0,0,5.91,6c.13.12.27.22.41.33l.14,29.46h3.68L46.4,85a1.28,1.28,0,0,0,.11-.24,2.07,2.07,0,0,0-.12-1.31V83h-.28c-.08-.08-.14-.16-.23-.24A31.94,31.94,0,0,1,40.79,78,12.49,12.49,0,0,1,38,73.09a25.52,25.52,0,0,1-.87-3.73,21.38,21.38,0,0,1,0-4.08c.15-2,.63-3.16,2.91-3.3,0,0,.06.07.06.11,0,1,0,1.94,0,2.91a2,2,0,0,0,2.61,1.84,1.93,1.93,0,0,0,1.55-2.21q-.06-14.05-.12-28.12a2.46,2.46,0,0,1,.37-1.3,1.73,1.73,0,0,1,2.14-.55,1.77,1.77,0,0,1,1,1.78L47.79,56c0,.18,0,.36,0,.54a2,2,0,0,0,2.37,1.93A1.85,1.85,0,0,0,52,56.43c0-2.17,0-4.34,0-6.51a3.43,3.43,0,0,1,.27-1.21,1.83,1.83,0,0,1,2-.91c1,.24,1.31.64,1.32,1.61,0,2.51,0,5,0,7.52a2.51,2.51,0,0,0,.81,2,2,2,0,0,0,2.28.38,1.91,1.91,0,0,0,1.21-2c-.06-1.81,0-3.62,0-5.42,0-1.51.6-2.1,2.12-2.07a1.46,1.46,0,0,1,1.44,1.44c0,2.39,0,4.78,0,7.18a3.85,3.85,0,0,0,.27,1.33,2.12,2.12,0,0,0,4-.78,14.92,14.92,0,0,1,.18-3.13,1.6,1.6,0,0,1,1.78-1.33,2,2,0,0,1,1.55,1.59,23.17,23.17,0,0,1,.15,2.35,62.74,62.74,0,0,1-.47,10.61c-.27,1.66-.36,3.35-.7,5a41.74,41.74,0,0,1-1.3,4.62c-.46,1.39-1,2.77-1.54,4.13h-.13v.34a2,2,0,0,0,0,1.68l.14,29.85h3.68L70.92,85a25.89,25.89,0,0,0,1.68-3.68c.64-1.9,1.11-3.85,1.59-5.8.31-1.26.54-2.55.74-3.83.15-.93.13-1.88.29-2.8a27.36,27.36,0,0,0,.5-5.49C75.68,61.62,75.69,59.88,75.69,58.14Z"/></svg>