<svg xmlns="http://www.w3.org/2000/svg" viewBox="0 0 84 43.84"><defs><style>.cls-1{fill:#d57f13;}.cls-2{fill:#ebde7f;}.cls-3{fill:#e0bc5a;}.cls-4{fill:#e28513;}</style></defs><g id="Layer_2" data-name="Layer 2"><g id="圖層_1" data-name="圖層 1"><path class="cls-1" d="M2.61,20c4.83-5.26,15.86-8.94,28.7-8.94S55.18,14.74,60,20h2.61v8.94c0,8.23-14,14.9-31.31,14.9S0,37.17,0,28.94V20Z"/><ellipse class="cls-2" cx="31.31" cy="20" rx="31.31" ry="14.9"/><ellipse class="cls-3" cx="31.19" cy="18.51" rx="24.24" ry="10.43"/><path class="cls-4" d="M24,14.9C28.82,9.64,39.85,6,52.69,6s23.87,3.68,28.7,8.94H84v8.94c0,8.23-14,14.9-31.31,14.9s-31.31-6.67-31.31-14.9V14.9Z"/><ellipse class="cls-2" cx="52.69" cy="14.9" rx="31.31" ry="14.9"/><ellipse class="cls-3" cx="52.57" cy="13.41" rx="24.24" ry="10.43"/></g></g></svg>